<?xml version="1.0" encoding="UTF-8" standalone="no"?>
<svg
   id="_레이어_1"
   viewBox="0 0 635.28003 150"
   version="1.1"
   sodipodi:docname="Theori_Signature_secondary_white_tight.svg"
   width="635.28003"
   height="150"
   inkscape:version="1.2.2 (b0a8486541, 2022-12-01)"
   xmlns:inkscape="http://www.inkscape.org/namespaces/inkscape"
   xmlns:sodipodi="http://sodipodi.sourceforge.net/DTD/sodipodi-0.dtd"
   xmlns="http://www.w3.org/2000/svg"
   xmlns:svg="http://www.w3.org/2000/svg">
  <sodipodi:namedview
     id="namedview23"
     pagecolor="#ffffff"
     bordercolor="#666666"
     borderopacity="1.0"
     inkscape:showpageshadow="2"
     inkscape:pageopacity="0.0"
     inkscape:pagecheckerboard="0"
     inkscape:deskcolor="#d1d1d1"
     showgrid="false"
     inkscape:zoom="0.68229167"
     inkscape:cx="177.34351"
     inkscape:cy="76.946565"
     inkscape:window-width="3840"
     inkscape:window-height="2091"
     inkscape:window-x="0"
     inkscape:window-y="32"
     inkscape:window-maximized="1"
     inkscape:current-layer="_레이어_1" />
  <defs
     id="defs4">
    <style
       id="style2">.cls-1{fill:#28d27d;}.cls-1,.cls-2{stroke-width:0px;}.cls-2{fill:#fff;}</style>
  </defs>
  <path
     class="cls-2"
     d="M 229.8,17.77 H 205.28 V 50.57 H 184.68 V 72.58 H 205.28 V 136.23 H 229.8 V 72.58 H 254.04 V 50.57 H 229.8 Z"
     id="path6" />
  <path
     class="cls-2"
     d="M 289.41,55.59 288.58,56.31 V 17.77 H 264.06 V 136.22 H 288.58 V 85.94 C 288.58,76.39 294.34,69.98 302.92,69.98 311.5,69.98 317.62,76.24 317.62,85.94 V 136.22 H 342.14 V 80.55 C 342.14,61.27 329.34,47.8 311.01,47.8 302.52,47.8 295.45,50.35 289.41,55.59 Z"
     id="path8" />
  <path
     class="cls-2"
     d="M 395.3,48.06 C 370.49,48.06 351.05,67.97 351.05,93.39 351.05,118.81 371.04,138.54 396.56,138.54 413.54,138.54 427.55,132.14 436.1,120.49 L 417.75,109.17 C 413.25,115.99 406,119.59 396.75,119.59 385.95,119.59 377.36,112.24 374.87,100.86 L 374.74,100.25 H 439.75 V 93.38 C 439.75,67.54 420.65,48.05 395.32,48.05 H 395.3 Z M 375.22,83.83 375.4,83.19 C 378.38,72.83 386.09,66.65 396.01,66.65 405.93,66.65 413.98,73.15 416.45,83.21 L 416.6,83.83 H 375.21 V 83.83 Z"
     id="path10" />
  <path
     class="cls-2"
     d="M 495.41,47.88 C 468.54,47.88 448.28,67.45 448.28,93.39 448.28,119.33 468.98,138.72 495.41,138.72 521.84,138.72 542.54,118.81 542.54,93.39 542.54,67.97 522.28,47.88 495.41,47.88 Z M 495.41,115.82 C 482.83,115.82 473.34,106.18 473.34,93.39 473.34,80.6 482.83,70.78 495.41,70.78 507.99,70.78 517.66,80.5 517.66,93.39 517.66,106.28 508.09,115.82 495.41,115.82 Z"
     id="path12" />
  <path
     class="cls-2"
     d="M 578.14,59.52 577.22,60.86 V 50.57 H 554.14 V 136.22 H 578.66 V 92.85 C 578.66,78.83 587.05,71.5 595.34,71.5 598.15,71.5 599.53,71.62 600.59,71.78 V 50.69 C 599.76,50.58 599.07,50.58 597.86,50.58 590.79,50.58 583.5,51.66 578.14,59.53 V 59.53 Z"
     id="path14" />
  <path
     class="cls-2"
     d="M 635.28,50.57 H 610.76 V 136.22 H 635.28 Z"
     id="path16" />
  <path
     class="cls-2"
     d="M 635.28,24.52 610.76,17.94 V 40.99 H 635.28 Z"
     id="path18" />
  <path
     class="cls-1"
     d="M 100,0 H 150 V 40.18 L 100,26.78 Z M 100,26.79 0,0 V 49.99 H 50 V 150 L 100,136.6 Z"
     id="path20" />
</svg>
